<svg width="56" height="56" viewBox="0 0 56 56" fill="none" xmlns="http://www.w3.org/2000/svg">
<path d="M33.25 36.75V41.125C33.25 42.2853 32.7891 43.3981 31.9686 44.2186C31.1481 45.0391 30.0353 45.5 28.875 45.5H11.375C10.2147 45.5 9.10188 45.0391 8.28141 44.2186C7.46094 43.3981 7 42.2853 7 41.125V14.875C7 13.7147 7.46094 12.6019 8.28141 11.7814C9.10188 10.9609 10.2147 10.5 11.375 10.5H28C30.4161 10.5 33.25 12.4589 33.25 14.875V19.25M40.25 36.75L49 28L40.25 19.25M19.25 28H47.25" stroke="black" stroke-width="2" stroke-linecap="round" stroke-linejoin="round"/>
</svg>
