<svg width="83" height="83" viewBox="0 0 83 83" fill="none" xmlns="http://www.w3.org/2000/svg">
<path d="M60.9529 23.3438C60.3175 31.9145 53.8201 38.9063 46.6873 38.9063C39.5545 38.9063 33.0458 31.9161 32.4217 23.3438C31.7733 14.4277 38.0955 7.78125 46.6873 7.78125C55.2791 7.78125 61.6014 14.5898 60.9529 23.3438Z" stroke="#333333" stroke-width="2" stroke-linecap="round" stroke-linejoin="round"/>
<path d="M46.6873 49.2812C32.5838 49.2812 18.2696 57.0625 15.6207 71.7496C15.2965 73.5198 16.3032 75.2188 18.1577 75.2188H75.2186C77.0731 75.2188 78.0749 73.5198 77.7556 71.7496C75.1051 57.0625 60.7908 49.2812 46.6873 49.2812Z" stroke="#333333" stroke-width="2" stroke-miterlimit="10"/>
<path d="M14.2656 28.5312V46.6875M23.3438 37.6094H5.1875" stroke="#333333" stroke-width="2" stroke-linecap="round" stroke-linejoin="round"/>
</svg>
