<svg width="83" height="83" viewBox="0 0 83 83" fill="none" xmlns="http://www.w3.org/2000/svg">
<path d="M41.5 41.5V62.25M51.875 51.875H31.125M25.9375 28.5312V23.3438C25.9375 19.2163 27.5771 15.2579 30.4957 12.3394C33.4142 9.42087 37.3726 7.78125 41.5 7.78125C45.6274 7.78125 49.5858 9.42087 52.5044 12.3394C55.4229 15.2579 57.0625 19.2163 57.0625 23.3438V28.5312M12.9688 28.5312C12.2808 28.5312 11.6211 28.8045 11.1347 29.2909C10.6483 29.7774 10.375 30.4371 10.375 31.125V66.1406C10.375 71.0428 14.5509 75.2188 19.4531 75.2188H63.5469C68.4491 75.2188 72.625 71.2454 72.625 66.3433V31.125C72.625 30.4371 72.3517 29.7774 71.8653 29.2909C71.3789 28.8045 70.7192 28.5312 70.0312 28.5312H12.9688Z" stroke="#333333" stroke-width="3" stroke-linecap="round" stroke-linejoin="round"/>
</svg>
