<svg width="83" height="83" viewBox="0 0 83 83" fill="none" xmlns="http://www.w3.org/2000/svg">
<path d="M67.4375 35.8667V67.4375C67.4375 69.5012 66.6177 71.4804 65.1584 72.9397C63.6992 74.3989 61.72 75.2188 59.6563 75.2188H23.3438C21.28 75.2188 19.3008 74.3989 17.8416 72.9397C16.3823 71.4804 15.5625 69.5012 15.5625 67.4375V15.5625C15.5625 13.4988 16.3823 11.5196 17.8416 10.0603C19.3008 8.60106 21.28 7.78125 23.3438 7.78125H39.3521C40.7274 7.78146 42.0463 8.32782 43.019 9.30021L65.9185 32.1998C66.8909 33.1724 67.4373 34.4914 67.4375 35.8667Z" stroke="black" stroke-width="3" stroke-linejoin="round"/>
<path d="M41.5 9.07812V28.5313C41.5 29.9071 42.0465 31.2265 43.0194 32.1994C43.9922 33.1722 45.3117 33.7188 46.6875 33.7188H66.1406M28.5312 46.6875H54.4688M28.5312 59.6563H54.4688" stroke="black" stroke-width="3" stroke-linecap="round" stroke-linejoin="round"/>
</svg>
