<svg width="94" height="63" viewBox="0 0 94 63" fill="none" xmlns="http://www.w3.org/2000/svg">
<path d="M57.0455 11.449V8.6478H61.7757V11.948C60.3578 11.6299 58.8927 11.449 57.3595 11.449H57.3586H57.3577H57.3569H57.356H57.3552H57.3543H57.3534H57.3526H57.3517H57.3508H57.35H57.3491H57.3483H57.3474H57.3465H57.3457H57.3448H57.3439H57.3431H57.3422H57.3413H57.3404H57.3396H57.3387H57.3378H57.337H57.3361H57.3352H57.3343H57.3335H57.3326H57.3317H57.3308H57.33H57.3291H57.3282H57.3273H57.3265H57.3256H57.3247H57.3238H57.3229H57.3221H57.3212H57.3203H57.3194H57.3185H57.3176H57.3168H57.3159H57.315H57.3141H57.3132H57.3123H57.3115H57.3106H57.3097H57.3088H57.3079H57.307H57.3061H57.3052H57.3044H57.3035H57.3026H57.3017H57.3008H57.2999H57.299H57.2981H57.2972H57.2963H57.2954H57.2946H57.2937H57.2928H57.2919H57.291H57.2901H57.2892H57.2883H57.2874H57.2865H57.2856H57.2847H57.2838H57.2829H57.282H57.2811H57.2802H57.2793H57.2784H57.2775H57.2766H57.2757H57.2748H57.2739H57.273H57.2721H57.2712H57.2703H57.2694H57.2685H57.2676H57.2667H57.2658H57.2649H57.2639H57.263H57.2621H57.2612H57.2603H57.2594H57.2585H57.2576H57.2567H57.2558H57.2549H57.254H57.253H57.2521H57.2512H57.2503H57.2494H57.2485H57.2476H57.2467H57.2458H57.2448H57.2439H57.243H57.2421H57.2412H57.2403H57.2394H57.2385H57.2375H57.2366H57.2357H57.2348H57.2339H57.233H57.232H57.2311H57.2302H57.2293H57.2284H57.2275H57.2265H57.2256H57.2247H57.2238H57.2229H57.222H57.221H57.2201H57.2192H57.2183H57.2174H57.2164H57.2155H57.2146H57.2137H57.2128H57.2118H57.2109H57.21H57.2091H57.2082H57.2072H57.2063H57.2054H57.2045H57.2035H57.2026H57.2017H57.2008H57.1999H57.1989H57.198H57.1971H57.1962H57.1952H57.1943H57.1934H57.1925H57.1915H57.1906H57.1897H57.1888H57.1878H57.1869H57.186H57.1851H57.1841H57.1832H57.1823H57.1814H57.1804H57.1795H57.1786H57.1776H57.1767H57.1758H57.1749H57.1739H57.173H57.1721H57.1712H57.1702H57.1693H57.1684H57.1674H57.1665H57.1656H57.1647H57.1637H57.1628H57.1619H57.1609H57.16H57.1591H57.1582H57.1572H57.1563H57.1554H57.1544H57.1535H57.1526H57.1517H57.1507H57.1498H57.1489H57.1479H57.147H57.1461H57.1452H57.1442H57.1433H57.1424H57.1414H57.1405H57.1396H57.1386H57.1377H57.1368H57.1359H57.1349H57.134H57.1331H57.1321H57.1312H57.1303H57.1293H57.1284H57.1275H57.1266H57.1256H57.1247H57.1238H57.1228H57.1219H57.121H57.12H57.1191H57.1182H57.1173H57.1163H57.1154H57.1145H57.1135H57.1126H57.1117H57.1107H57.1098H57.1089H57.108H57.107H57.1061H57.1052H57.1042H57.1033H57.1024H57.1015H57.1005H57.0996H57.0987H57.0977H57.0968H57.0959H57.0949H57.094H57.0931H57.0922H57.0912H57.0903H57.0894H57.0885H57.0875H57.0866H57.0857H57.0847H57.0838H57.0829H57.082H57.081H57.0801H57.0792H57.0782H57.0773H57.0764H57.0755H57.0745H57.0736H57.0727H57.0718H57.0708H57.0699H57.069H57.0681H57.0671H57.0662H57.0653H57.0644H57.0634H57.0625H57.0616H57.0607H57.0597H57.0588H57.0579H57.057H57.056H57.0551H57.0542H57.0533H57.0523H57.0514H57.0505H57.0496H57.0487H57.0477H57.0468H57.0459H57.0455Z" fill="white" stroke="black" stroke-width="0.3"/>
<path d="M25.0805 16.4641L25.0581 16.5394L25.1071 16.6007L25.9182 17.6146C25.7535 17.8659 25.622 18.0663 25.5108 18.2356C25.052 18.9346 24.9411 19.1035 24.2805 20.1387L23.0716 19.7581L22.9947 19.7339L22.9321 19.7846C22.4801 20.1511 22.1747 20.4016 21.8694 20.6518L21.8692 20.652C21.564 20.9023 21.2591 21.1524 20.8077 21.5184L20.7471 21.5674L20.7525 21.6452L20.8425 22.9506C20.1458 23.2159 19.8081 23.344 19.471 23.4719L19.4693 23.4725L19.4688 23.4727C19.1318 23.6006 18.7945 23.7285 18.0993 23.9933L17.3365 22.9388L17.2892 22.8734L17.2085 22.8769C16.6344 22.9013 16.2434 22.9196 15.8527 22.9379C15.462 22.9563 15.0716 22.9746 14.4981 22.999L14.4174 23.0024L14.3758 23.0717L13.7031 24.1929C12.9966 23.9836 12.6476 23.8847 12.2988 23.7859L12.2987 23.7859C11.9497 23.687 11.6009 23.5882 10.8921 23.3782L10.8696 22.0474L10.8682 21.9705L10.805 21.9267C10.3293 21.5974 10.0061 21.3717 9.68279 21.146L9.68218 21.1456L9.68212 21.1456C9.35856 20.9197 9.03483 20.6937 8.55844 20.3639L8.49061 20.3169L8.41462 20.3491L7.25191 20.841C6.91731 20.4032 6.70613 20.1299 6.53078 19.903C6.21745 19.4975 6.01852 19.24 5.43428 18.4569L6.17923 17.3733L6.22223 17.3108L6.1973 17.2391C6.00179 16.677 5.86736 16.2981 5.73303 15.9196C5.59875 15.5412 5.46458 15.163 5.26939 14.6019L5.24289 14.5257L5.16472 14.5058L3.92974 14.1914C3.89686 13.426 3.88522 13.0536 3.87358 12.6809L3.87357 12.6808C3.8619 12.3073 3.85022 11.9336 3.81726 11.1662L5.03099 10.7392L5.10537 10.713L5.12599 10.6369C5.24857 10.1843 5.33831 9.84844 5.4205 9.54088C5.5515 9.05068 5.66331 8.63228 5.85833 7.92719L5.87876 7.85333L5.83089 7.7935L5.01977 6.7796C5.18444 6.52834 5.31596 6.32798 5.42708 6.15872C5.88601 5.4596 5.99687 5.29074 6.65745 4.2555L7.86639 4.63609L7.94329 4.6603L8.00591 4.60953C8.45798 4.24298 8.76347 3.99248 9.06874 3.74216L9.06876 3.74214C9.37395 3.49189 9.67892 3.24181 10.1303 2.87581L10.1909 2.82672L10.1855 2.74897L10.0955 1.44361C11.3097 0.981165 11.4324 0.936429 12.3641 0.596713C12.5022 0.546378 12.658 0.489567 12.8378 0.423961L13.6015 1.47977L13.6488 1.54515L13.7294 1.54172C14.3036 1.51728 14.6945 1.49896 15.0853 1.48064L15.0853 1.48064C15.476 1.46233 15.8664 1.44403 16.4399 1.41962L16.5206 1.41619L16.5622 1.34693L17.2349 0.225692C17.9414 0.434972 18.2904 0.53386 18.6391 0.632682L18.6393 0.632735C18.9883 0.731605 19.3371 0.830429 20.0459 1.04043L20.0684 2.37114L20.0697 2.44811L20.133 2.49192C20.6088 2.8213 20.9321 3.047 21.2555 3.27278L21.2558 3.27298C21.5794 3.49888 21.9031 3.72489 22.3795 4.05472L22.4468 4.1013L22.5224 4.06993L23.71 3.57697C24.0449 4.0151 24.2562 4.28856 24.4316 4.5156C24.7449 4.92111 24.9439 5.17855 25.5281 5.96168L24.7832 7.04524L24.7402 7.1078L24.7651 7.1795C24.9606 7.74159 25.095 8.12044 25.2294 8.49899C25.3637 8.87742 25.4978 9.25554 25.693 9.81671L25.7195 9.8929L25.7977 9.9128L27.0327 10.2272C27.0655 10.9926 27.0772 11.365 27.0888 11.7376L27.0888 11.7378C27.1005 12.1113 27.1122 12.485 27.1451 13.2524L25.9314 13.6794L25.8575 13.7054L25.8366 13.7809C25.7563 14.0715 25.69 14.3135 25.6303 14.5313C25.4541 15.1749 25.3355 15.6081 25.0805 16.4641ZM15.158 3.70824L15.1571 3.70828C10.6506 3.90746 7.12377 7.83934 7.29758 12.5323C7.47138 17.2248 11.2721 20.8849 15.8048 20.6859C20.3365 20.5114 23.8632 16.5544 23.6648 11.8615C23.4908 7.16827 19.6894 3.53396 15.158 3.70824Z" fill="white" stroke="black" stroke-width="0.3"/>
<path d="M12.2695 31.306L12.1916 31.3261L12.1652 31.4022C12.0555 31.7192 11.9824 31.9264 11.9091 32.1339L11.9091 32.1341C11.8358 32.3416 11.7624 32.5495 11.6524 32.8673L11.6281 32.9376L11.6694 32.9996L12.0494 33.5696C11.8127 33.8789 11.6945 34.0364 11.5765 34.1938L11.5765 34.1939C11.4597 34.3496 11.3429 34.5052 11.1102 34.8093L10.5085 34.5603L10.4336 34.5293L10.3667 34.575C10.0979 34.7583 9.9206 34.8805 9.7436 35.0026L9.74333 35.0028L9.7432 35.0028C9.56626 35.1249 9.38951 35.2468 9.12131 35.4296L9.05581 35.4743V35.5536V36.2455C8.68942 36.348 8.50446 36.4041 8.31987 36.46L8.31954 36.4601C8.13644 36.5156 7.95359 36.571 7.59015 36.6727L7.23403 36.0862L7.19394 36.0201L7.11689 36.0144C6.60536 35.9765 6.35536 35.9678 5.97697 35.9546C5.8651 35.9507 5.74201 35.9464 5.59763 35.9409L5.51785 35.9378L5.47075 36.0023L5.07552 36.5431C4.98304 36.5061 4.90255 36.4738 4.8309 36.4451C4.353 36.2534 4.26862 36.2195 3.64831 35.9889L3.69042 35.294L3.69496 35.2192L3.63784 35.1707C3.61132 35.1481 3.58573 35.1264 3.56096 35.1053C3.12958 34.7386 2.94931 34.5853 2.46298 34.1916L2.39912 34.1399L2.32117 34.1659L1.6982 34.3736C1.48573 34.0489 1.38017 33.8822 1.27449 33.7153L1.2744 33.7152C1.16753 33.5464 1.06052 33.3775 0.844387 33.0472L1.2648 32.5217L1.31172 32.463L1.29287 32.3903C1.19458 32.0112 1.1276 31.7738 1.05614 31.5206C1.00369 31.3348 0.948827 31.1403 0.877401 30.875L0.856449 30.7972L0.779992 30.7717L0.155814 30.5637C0.159668 30.4909 0.163184 30.4249 0.16641 30.3643C0.197637 29.7779 0.201584 29.7038 0.220472 28.973L0.876283 28.7614L0.947502 28.7385L0.971981 28.6677C1.08171 28.3508 1.15484 28.1436 1.22807 27.9361L1.22808 27.936L1.22809 27.936C1.30137 27.7284 1.37474 27.5205 1.48477 27.2026L1.50912 27.1323L1.46783 27.0704L1.0878 26.5003C1.32454 26.191 1.44267 26.0335 1.5607 25.8761L1.56078 25.876C1.67758 25.7203 1.7943 25.5646 2.02696 25.2606L2.62869 25.5096L2.70358 25.5406L2.77055 25.4949C3.03946 25.3116 3.21676 25.1893 3.39382 25.0672L3.39388 25.0672C3.57086 24.9451 3.74763 24.8232 4.0159 24.6403L4.0814 24.5956V24.5164V23.8244C4.44779 23.7219 4.63275 23.6658 4.81734 23.6099L4.81766 23.6098C5.00077 23.5543 5.18361 23.4989 5.54706 23.3972L5.90318 23.9837L5.94327 24.0498L6.02031 24.0555C6.53188 24.0934 6.78189 24.1021 7.16032 24.1153C7.27217 24.1192 7.39523 24.1235 7.53958 24.129L7.61936 24.1321L7.66646 24.0676L8.06169 23.5268C8.15422 23.5639 8.23475 23.5962 8.30643 23.6249C8.78422 23.8166 8.86864 23.8504 9.4889 24.081L9.44679 24.7759L9.44225 24.8507L9.49936 24.8993C9.52589 24.9218 9.55148 24.9436 9.57624 24.9646C10.0076 25.3313 10.1879 25.4846 10.6742 25.8783L10.7381 25.93L10.816 25.904L11.439 25.6963C11.6515 26.0211 11.757 26.1877 11.8627 26.3546L11.8628 26.3548C11.9697 26.5235 12.0767 26.6924 12.2928 27.0227L11.8724 27.5482L11.8255 27.6069L11.8443 27.6796C11.9426 28.0587 12.0096 28.2961 12.0811 28.5493C12.1335 28.7352 12.1884 28.9296 12.2598 29.1949L12.2793 29.2673L12.3489 29.2952L12.9818 29.5483C12.9778 29.6238 12.9741 29.692 12.9708 29.7545C12.9397 30.339 12.9356 30.4145 12.9169 31.1389L12.2695 31.306ZM6.74617 25.27C4.16643 25.1439 2.02633 27.2173 1.92569 29.8583C1.82505 32.4751 3.81284 34.7228 6.36657 34.8243C8.94634 34.9504 11.0865 32.877 11.1871 30.236C11.2877 27.5944 9.29947 25.3715 6.74617 25.27Z" fill="white" stroke="black" stroke-width="0.3"/>
<path d="M54.4031 4.52911L54.4478 4.59419H54.5268H57.0628V11.4779C46.5996 11.8456 38.2174 20.3004 37.9223 30.764H34.2838C32.2963 30.764 30.6907 32.3695 30.6907 34.357V36.2562L26.2047 34.9287V34.9068V34.8848V34.8629V34.841V34.8193V34.7977V34.7762V34.7547V34.7334V34.7121V34.6909V34.6698V34.6488V34.6279V34.6071V34.5863V34.5657V34.5451V34.5247V34.5043V34.484V34.4637V34.4436V34.4236V34.4036V34.3837V34.3639V34.3442V34.3246V34.305V34.2855V34.2662V34.2469V34.2276V34.2085V34.1894V34.1704V34.1515V34.1327V34.114V34.0953V34.0767V34.0582V34.0398V34.0214V34.0031V33.9849V33.9668V33.9487V33.9307V33.9128V33.895V33.8772V33.8596V33.8419V33.8244V33.8069V33.7895V33.7722V33.755V33.7378V33.7207V33.7036V33.6867V33.6698V33.6529V33.6362V33.6195V33.6028V33.5863V33.5698V33.5534V33.537V33.5207V33.5045V33.4883V33.4722V33.4562V33.4402V33.4243V33.4085V33.3927V33.377V33.3613V33.3457V33.3302V33.3147V33.2993V33.2839V33.2687V33.2534V33.2383V33.2231V33.2081V33.1931V33.1782V33.1633V33.1485V33.1337V33.119V33.1043V33.0897V33.0752V33.0607V33.0463V33.0319V33.0176V33.0033V32.9891V32.9749V32.9608V32.9467V32.9327V32.9187V32.9048V32.891V32.8772V32.8634V32.8497V32.836V32.8224V32.8088V32.7953V32.7819V32.7684V32.7551V32.7417V32.7284V32.7152V32.702V32.6889V32.6758V32.6627V32.6497V32.6367V32.6238V32.6109V32.598V32.5852V32.5725V32.5597V32.5471V32.5344V32.5218V32.5093V32.4967V32.4843V32.4718V32.4594V32.447V32.4347V32.4224V32.4101V32.3979V32.3857V32.3736V32.3615V32.3494V32.3373V32.3253V32.3134V32.3014V32.2895V32.2776V32.2658V32.2539V32.2422V32.2304V32.2187V32.207V32.1953V32.1837V32.1721V32.1605V32.149V32.1374V32.1259V32.1145V32.103V32.0916V32.0802V32.0689V32.0575V32.0462V32.035V32.0237V32.0125V32.0012V31.9901V31.9789V31.9677V31.9566V31.9455V31.9344V31.9234V31.9123V31.9013V31.8903V31.8793V31.8684V31.8574V31.8465V31.8356V31.8247V31.8139V31.803V31.7922V31.7814V31.7705V31.7598V31.749V31.7382V31.7275V31.7167V31.706V31.6953V31.6846V31.674V31.6633V31.6526V31.642V31.6313V31.6207V31.6101V31.5995V31.5889V31.5783V31.5677V31.5572V31.5466V31.5361V31.5255V31.515V31.5044V31.4939V31.4834V31.4729V31.4624V31.4519V31.4414V31.4309V31.4204V31.4099V31.3994V31.3889V31.3784V31.3679V31.3575V31.347V31.3365V31.326V31.3155V31.3051V31.2946V31.2841V31.2736V31.2631V31.2526V31.2421V31.2316V31.2211V31.2106V31.2001V31.1896V31.1791V31.1686V31.158V31.1475V31.137V31.1264V31.1159V31.1053V31.0947V31.0841V31.0735V31.063V31.0523V31.0417V31.0311V31.0205V31.0098V30.9991V30.9885V30.9778V30.9671V30.9564V30.9456V30.9349V30.9242V30.9134V30.9026V30.8918V30.881V30.8702V30.8593V30.8485V30.8376V30.8267V30.8158V30.8048V30.7939V30.7829V30.7719V30.7609V30.7499V30.7388V30.7278V30.7167V30.7056V30.6944V30.6833V30.6721V30.6609V30.6497V30.6384V30.6272V30.6159V30.6045V30.5932V30.5818V30.5704V30.559V30.5475V30.5361V30.5246V30.513V30.5015V30.4899V30.4783V30.4666V30.4549V30.4432V30.4315V30.4197V30.4079V30.3961V30.3842V30.3723V30.3604V30.3484V30.3364V30.3244V30.3123V30.3002V30.2881V30.2759V30.2637V30.2515V30.2392V30.2269V30.2145V30.2021V30.1897V30.1773V30.1648V30.1522V30.1396V30.127V30.1143V30.1016V30.0889V30.0761V30.0633V30.0504V30.0375V30.0246V30.0116V29.9985V29.9854V29.9723V29.9591V29.9459V29.9327V29.9194V29.906V29.8926V29.8792V29.8657V29.8521V29.8385V29.8249V29.8112V29.7975V29.7837V29.7699V29.756V29.742V29.728V29.714V29.6999V29.6858V29.6716V29.6573V29.643V29.6287V29.6143V29.5998V29.5853V29.5707V29.5561V29.5414V29.5267V29.5119V29.497V29.4821V29.4672V29.4521V29.4371V29.4219V29.4067V29.3915V29.3761V29.3608V29.3453V29.3298V29.3143V29.2986V29.2829V29.2672V29.2514V29.2355V29.2196V29.2036V29.1875V29.1714V29.1552V29.1389V29.1226V29.1062V29.0897V29.0732V29.0566V29.0399V29.0232V29.0064V28.9895V28.9726V28.9556V28.9385V28.9214V28.9042V28.8869V28.8695V28.8521V28.8346V28.817V28.7994V28.7816V28.7638V28.746V28.728V28.71V28.6919V28.6737V28.6555V28.6372V28.6188V28.6003V28.5818V28.5631V28.5444V28.5256V28.5068V28.4878V28.4688V28.4497V28.4305V28.4112V28.3919V28.3725V28.353V28.3334V28.3137V28.2939V28.2741V28.2542V28.2342V28.2141V28.1939V28.1736V28.1533V28.1329V28.1123V28.0917V28.071V28.0503V28.0294V28.0084V27.9874V27.9663V27.945V27.9237V27.9023V27.8808V27.8592V27.8376V27.8158V27.7939V27.772V27.7499V27.7278V27.7056V27.7049L31.2742 26.1984L31.3503 26.1758L31.3744 26.1001C32.2044 23.4878 32.4973 22.5849 33.3518 19.997L33.3767 19.9214L33.3281 19.8584L30.1002 15.674C31.1903 14.1736 31.7051 13.4613 32.2198 12.749L32.2199 12.7489C32.7345 12.0367 33.2492 11.3246 34.3392 9.82427L39.3125 11.5936L39.3868 11.6201L39.4507 11.5739C39.6611 11.422 39.8585 11.2794 40.0454 11.1444C41.811 9.8695 42.6406 9.27048 44.6283 7.81282L44.6916 7.76635L44.6895 7.68779L44.5461 2.4034C46.316 1.82907 47.148 1.55973 47.98 1.29038C48.812 1.02101 49.6441 0.75164 51.4142 0.177246L54.4031 4.52911Z" fill="white" stroke="black" stroke-width="0.3"/>
<path d="M39.4025 51.0604L39.3384 51.0134L39.2635 51.04L34.2901 52.8094C33.2002 51.3092 32.6856 50.5971 32.1709 49.885L32.1708 49.8848C31.656 49.1725 31.1412 48.4601 30.0511 46.9596L31.5042 45.0726C32.1652 45.8293 33.1318 46.3255 34.2347 46.3255H42.6347C43.2012 46.3255 43.7726 46.1941 44.2258 45.9456C47.6028 49.0449 52.067 50.9997 56.9649 51.18V58.0395H54.4777H54.3988L54.3541 58.1046L51.3652 62.4564C49.595 61.882 48.763 61.6127 47.9309 61.3433C47.0989 61.074 46.2669 60.8046 44.497 60.2303L44.6405 54.9459L44.6426 54.8666L44.5783 54.8202C44.3681 54.6684 44.1709 54.526 43.9841 54.3911C42.2183 53.116 41.3895 52.5175 39.4025 51.0604Z" fill="white" stroke="black" stroke-width="0.3"/>
<path d="M72.5475 32.4278C72.3278 32.3546 72.108 32.3058 71.8882 32.3058H63.4882C63.2441 32.3058 63.0243 32.3546 62.8289 32.4278L59.0929 28.6918C59.215 28.4232 59.2882 28.1302 59.2882 27.8127V19.4127C59.2882 18.2895 58.3847 17.386 57.2615 17.386H48.8859C47.7627 17.386 46.8592 18.2895 46.8592 19.4127V27.7883C46.8592 28.1058 46.9324 28.3988 47.0545 28.6674L43.2941 32.4278C43.0743 32.3546 42.8545 32.3058 42.6347 32.3058H34.2592C33.1359 32.3058 32.2324 33.2092 32.2324 34.3325V42.7081C32.2324 43.8313 33.1359 44.7348 34.2592 44.7348H42.6347C43.758 44.7348 44.6615 43.8313 44.6615 42.7081V34.3325C44.6615 34.0639 44.6127 33.7953 44.4906 33.5511L48.2999 29.7418C48.4708 29.7906 48.6661 29.8151 48.8615 29.8151H57.2371C57.4324 29.8151 57.6278 29.7906 57.7987 29.7418L61.608 33.5511C61.5103 33.7953 61.4371 34.0639 61.4371 34.3325V42.7081C61.4371 43.8313 62.3406 44.7348 63.4638 44.7348H71.8394C72.9627 44.7348 73.8661 43.8313 73.8661 42.7081V34.3325C73.8661 34.0639 73.8173 33.7953 73.6952 33.5511L77.5045 29.7418C77.6754 29.7906 77.8708 29.8151 78.0661 29.8151H86.4417C87.565 29.8151 88.4685 28.9116 88.4685 27.7883V19.4127C88.4685 18.2895 87.565 17.386 86.4417 17.386H78.0661C76.9429 17.386 76.0394 18.2895 76.0394 19.4127V27.7883C76.0394 28.1058 76.1127 28.3988 76.2348 28.6674L72.5475 32.4278Z" fill="#F18524"/>
<path d="M75.649 44.2989H76.8943C76.9824 44.2989 77.0374 44.3539 77.0374 44.4419V45.6873C77.0374 45.7592 76.9745 45.8303 76.8943 45.8303H75.649C75.5771 45.8303 75.506 45.7674 75.506 45.6873V44.4419C75.506 44.3701 75.5689 44.2989 75.649 44.2989Z" fill="white" stroke="black" stroke-width="0.3"/>
<path d="M74.4034 57.5826H76.2836C76.4367 57.5826 76.5767 57.7037 76.5976 57.9038V59.7768C76.5976 59.9575 76.4502 60.0908 76.2836 60.0908H74.4034C74.2227 60.0908 74.0895 59.9433 74.0895 59.7768V57.8966C74.0895 57.7159 74.2369 57.5826 74.4034 57.5826Z" fill="white" stroke="black" stroke-width="0.3"/>
<path d="M79.1126 32.9652V34.4547C79.1126 34.5672 79.0088 34.671 78.8963 34.671H77.4068C77.2943 34.671 77.1905 34.5672 77.1905 34.4547V32.9652C77.1905 32.8526 77.2943 32.7489 77.4068 32.7489H78.8963C79.0088 32.7489 79.1126 32.8526 79.1126 32.9652Z" fill="white" stroke="black" stroke-width="0.3"/>
<path d="M87.1046 34.357V31.9151C87.1046 31.6561 87.2816 31.4791 87.5406 31.4791H89.9825C90.2171 31.4791 90.4185 31.6805 90.4185 31.9151V34.357C90.4185 34.5916 90.2171 34.7931 89.9825 34.7931H87.5406C87.306 34.7931 87.1046 34.5916 87.1046 34.357Z" fill="white" stroke="black" stroke-width="0.3"/>
<path d="M61.2208 51.279V49.3255C61.2208 49.1642 61.3734 49.0116 61.5348 49.0116H63.4882C63.6548 49.0116 63.8022 49.1449 63.8022 49.3255V51.279C63.8022 51.4455 63.6689 51.593 63.4882 51.593H61.5348C61.3682 51.593 61.2208 51.4597 61.2208 51.279Z" fill="white" stroke="black" stroke-width="0.3"/>
<path d="M80.4348 36.5582H86.2953C86.9938 36.5582 87.5616 37.1259 87.5616 37.8245V43.6849C87.5616 44.3835 86.9938 44.9512 86.2953 44.9512H80.4348C79.7363 44.9512 79.1686 44.3835 79.1686 43.6849V37.8245C79.1686 37.1259 79.7363 36.5582 80.4348 36.5582Z" fill="white" stroke="black" stroke-width="0.3"/>
<path d="M69.6662 48.035H74.55C75.1228 48.035 75.5736 48.4776 75.5965 49.0843V53.9652C75.5965 54.5417 75.1264 55.0118 74.55 55.0118H69.6662C69.0898 55.0118 68.6197 54.5417 68.6197 53.9652V49.0815C68.6197 48.5051 69.0898 48.035 69.6662 48.035Z" fill="white" stroke="black" stroke-width="0.3"/>
<path d="M90.5197 24.1292H93.108C93.3708 24.1292 93.5929 24.3344 93.5929 24.6141V27.2025C93.5929 27.4615 93.367 27.6874 93.108 27.6874H90.5197C90.2606 27.6874 90.0348 27.4615 90.0348 27.2025V24.6141C90.0348 24.3551 90.2606 24.1292 90.5197 24.1292Z" fill="white" stroke="black" stroke-width="0.3"/>
<path d="M91.6639 15.921C91.6639 16.058 91.5357 16.1862 91.3988 16.1862H89.7139C89.577 16.1862 89.4488 16.058 89.4488 15.921V14.2362C89.4488 14.0992 89.577 13.971 89.7139 13.971H91.3988C91.5357 13.971 91.6639 14.0992 91.6639 14.2362V15.921Z" fill="white" stroke="black" stroke-width="0.3"/>
<path d="M80.8258 48.0106H83.4386C83.7183 48.0106 83.9235 48.2327 83.9235 48.4955V51.1083C83.9235 51.3673 83.6976 51.5932 83.4386 51.5932H80.8258C80.5668 51.5932 80.3409 51.3673 80.3409 51.1083V48.4955C80.3409 48.2365 80.5668 48.0106 80.8258 48.0106Z" fill="white" stroke="black" stroke-width="0.3"/>
<path d="M58.0675 58.0953H61.4617C61.8428 58.0953 62.142 58.3944 62.142 58.7755V62.1697C62.142 62.5508 61.8428 62.85 61.4617 62.85H58.0675C57.6864 62.85 57.3873 62.5508 57.3873 62.1697V58.7755C57.3873 58.3944 57.6864 58.0953 58.0675 58.0953Z" fill="white" stroke="black" stroke-width="0.3"/>
<path d="M63.5374 9.22658H62.2188C62.1307 9.22658 62.0514 9.14723 62.0514 9.05914V7.74054C62.0514 7.65245 62.1307 7.5731 62.2188 7.5731H63.5374C63.6255 7.5731 63.7049 7.65245 63.7049 7.74054V9.05914C63.7049 9.14723 63.6255 9.22658 63.5374 9.22658Z" fill="white" stroke="black" stroke-width="0.3"/>
<path d="M82.657 14.9408H79.3361C78.9823 14.9408 78.6803 14.6446 78.6803 14.2605V10.9396C78.6803 10.5829 78.9794 10.2838 79.3361 10.2838H82.657C83.0137 10.2838 83.3128 10.5829 83.3128 10.9396V14.285C83.3128 14.6416 83.0137 14.9408 82.657 14.9408Z" fill="white" stroke="black" stroke-width="0.3"/>
<path d="M62.4664 18.8756V16.4337C62.4664 16.1991 62.6679 15.9977 62.9025 15.9977H65.3443C65.5789 15.9977 65.7804 16.1991 65.7804 16.4337V18.8756C65.7804 19.1102 65.5789 19.3116 65.3443 19.3116H62.9025C62.6679 19.3116 62.4664 19.1102 62.4664 18.8756Z" fill="white" stroke="black" stroke-width="0.3"/>
<path d="M74.0616 12.9626H67.5174C66.7212 12.9626 66.0802 12.3217 66.0802 11.5254V4.98125C66.0802 4.18503 66.7212 3.54404 67.5174 3.54404H74.0616C74.8578 3.54404 75.4988 4.18503 75.4988 4.98125V11.5254C75.4988 12.3217 74.8578 12.9626 74.0616 12.9626Z" fill="white" stroke="black" stroke-width="0.3"/>
<path d="M65.3478 28.3256V23.4663C65.3478 22.8919 65.8158 22.4442 66.3698 22.4442H71.2292C71.7832 22.4442 72.2512 22.8919 72.2512 23.4663V28.3256C72.2512 28.8797 71.8036 29.3477 71.2292 29.3477H66.3698C65.8158 29.3477 65.3478 28.9 65.3478 28.3256Z" fill="white" stroke="black" stroke-width="0.3"/>
<path d="M71.6892 18.729C71.6892 18.8171 71.6343 18.8721 71.5462 18.8721H70.3253C70.2372 18.8721 70.1822 18.8171 70.1822 18.729V17.5081C70.1822 17.42 70.2372 17.3651 70.3253 17.3651H71.5462C71.6343 17.3651 71.6892 17.42 71.6892 17.5081V18.729Z" fill="white" stroke="black" stroke-width="0.3"/>
</svg>
